<svg width="155" height="50" viewBox="0 0 155 50" fill="none" xmlns="http://www.w3.org/2000/svg">
<path d="M26.814 26.6279C28.9203 26.6279 30.6279 24.9203 30.6279 22.814C30.6279 20.7076 28.9203 19 26.814 19C24.7076 19 23 20.7076 23 22.814C23 24.9203 24.7076 26.6279 26.814 26.6279Z" fill="#222333"/>
<path d="M95.814 22.6279C97.9203 22.6279 99.6279 20.9203 99.6279 18.814C99.6279 16.7076 97.9203 15 95.814 15C93.7076 15 92 16.7076 92 18.814C92 20.9203 93.7076 22.6279 95.814 22.6279Z" fill="#222333"/>
<path d="M111.163 16.3256C114.014 16.3256 116.326 14.0141 116.326 11.1628C116.326 8.31146 114.014 6 111.163 6C108.311 6 106 8.31146 106 11.1628C106 14.0141 108.311 16.3256 111.163 16.3256Z" fill="#222333"/>
<path d="M128.616 17.6977C132.219 17.6977 135.14 14.7771 135.14 11.1744C135.14 7.57172 132.219 4.65116 128.616 4.65116C125.014 4.65116 122.093 7.57172 122.093 11.1744C122.093 14.7771 125.014 17.6977 128.616 17.6977Z" fill="#222333"/>
<path d="M99.1748 28.93H104.477V33.1507H99.1748V42.3841C99.1749 43.3606 99.3724 44.0237 99.7793 44.3841C100.21 44.7328 100.838 44.9065 101.663 44.9065H104.381C104.345 44.6415 104.325 44.3666 104.325 44.0814C104.325 42.3489 104.884 40.9303 105.988 39.9769C107.116 39.0002 108.779 38.279 110.965 37.8255L117.488 36.5462C117.488 35.244 117.186 34.2559 116.581 33.6048C116 32.9305 115.163 32.5932 114.059 32.5931C112.954 32.5931 112.14 32.849 111.535 33.3489C110.931 33.8257 110.546 34.5468 110.372 35.5003L104.687 35.2327C105.059 33.0234 106.058 31.3489 107.663 30.221C109.291 29.07 111.43 28.4886 114.069 28.4886C117.081 28.4886 119.349 29.2097 120.849 30.6399C122.383 32.0701 123.151 34.1743 123.151 36.93V43.8255C123.151 44.4069 123.245 44.7909 123.419 44.9886C123.617 45.1628 123.907 45.2562 124.291 45.2562H124.86V49.1399C124.686 49.1864 124.395 49.2438 123.988 49.2903C123.616 49.3368 123.232 49.3606 122.86 49.3606C122.058 49.3606 121.302 49.2208 120.604 48.9417C119.93 48.6626 119.372 48.1973 118.941 47.5462C118.687 47.1466 118.511 46.6486 118.409 46.053C118.161 46.5557 117.838 47.0152 117.431 47.43C116.803 48.1044 115.976 48.6399 114.941 49.012C113.942 49.384 112.767 49.5814 111.441 49.5814H111.419C109.338 49.5814 107.628 49.1042 106.291 48.1507C105.359 47.4518 104.757 46.5565 104.488 45.469V49.1282H99.5811C97.4998 49.1282 95.965 48.651 94.9883 47.6976C94.0116 46.7208 93.5234 45.1741 93.5234 43.0579V33.1507H90.2676V28.93H93.5234V24.1858H99.1748V28.93ZM60.5469 28.3958C62.6049 28.3959 64.3026 28.8372 65.7793 29.7093C67.256 30.593 68.4067 31.849 69.209 33.4769C70.0345 35.1047 70.4531 37.058 70.4531 39.3138V40.4417H56.2441C56.3139 42.0464 56.7444 43.2447 57.5234 44.0237C58.3257 44.8026 59.3844 45.1858 60.6865 45.1858C61.6398 45.1858 62.4308 44.9883 63.0586 44.5814C63.7095 44.1744 64.1741 43.5696 64.4531 42.7327L70.1396 43.0696C69.6164 45.0811 68.4884 46.6507 66.791 47.7786C65.0817 48.9065 63.0112 49.4769 60.5693 49.4769L60.5811 49.5003C58.5231 49.5002 56.7204 49.0698 55.1973 48.221C53.6859 47.3374 52.5118 46.1164 51.6514 44.5237C50.8258 42.9423 50.4072 41.0812 50.4072 38.9417C50.4072 36.8022 50.8258 34.9646 51.6514 33.4065C52.5001 31.8255 53.6859 30.5929 55.1973 29.7093C56.7089 28.8256 58.4887 28.3958 60.5469 28.3958ZM29.6162 49.1282H23.9648V28.93H29.6162V49.1282ZM40.9531 43.4417L45.6973 28.93H51.6162L44.1973 49.1282H37.6279L30.2441 28.93H36.1631L40.9531 43.4417ZM71.7559 49.1282L71.7441 49.1165H71.7559V49.1282ZM82.9307 28.4769C84.3839 28.4769 85.6164 28.7905 86.6279 29.4183C87.6628 30.0462 88.4416 30.9419 88.9648 32.0931C89.523 33.221 89.791 34.5701 89.791 36.1282V49.1282H84.1396V38.012C84.1396 36.9308 84.0464 36.0119 83.8721 35.2562C83.6977 34.5004 83.3841 33.9416 82.9307 33.5579C82.4772 33.151 81.849 32.9535 81.0469 32.9534C79.8608 32.9534 78.9648 33.3958 78.3369 34.2679C77.7092 35.1167 77.3955 36.361 77.3955 38.0003V49.1165H71.7559V28.93H76.8369L76.958 32.1722C77.1269 31.7565 77.3235 31.3813 77.5469 31.0462C78.1747 30.1394 78.9537 29.4883 79.8838 29.0814C80.814 28.6744 81.826 28.4769 82.9307 28.4769ZM9.23242 22.3724C13.5813 22.3724 16.9186 23.5352 19.2559 25.8724C21.593 28.1863 22.7559 31.489 22.7559 35.7796C22.7558 40.0701 21.6049 43.3378 19.291 45.6517C17.0003 47.9656 13.7205 49.1165 9.45312 49.1165H0V22.3724H9.23242ZM112.907 41.0696C112 41.2441 111.314 41.5466 110.837 41.9769C110.384 42.3838 110.163 42.907 110.163 43.5579C110.163 44.2091 110.383 44.7679 110.837 45.1399C111.29 45.512 111.942 45.7093 112.803 45.7093L112.779 45.6976C113.709 45.6975 114.523 45.5229 115.232 45.1741C115.93 44.802 116.489 44.2556 116.896 43.5579C117.291 42.8603 117.5 42.023 117.5 41.0696V40.0931L112.907 41.0696ZM5.73242 44.3021H9.23242C11.8253 44.3021 13.7323 43.6163 14.9648 42.2327C16.2206 40.8258 16.8486 38.663 16.8486 35.7562C16.8486 32.8492 16.2207 30.6975 14.9648 29.3138C13.7323 27.907 11.8253 27.2093 9.23242 27.2093H5.73242V44.3021ZM60.5469 32.5814C59.3725 32.5814 58.3836 32.9654 57.6045 33.7444C56.8256 34.5235 56.3953 35.5817 56.2441 36.9886H64.6514C64.5816 35.5118 64.163 34.3951 63.4072 33.6741C62.6747 32.9417 61.7211 32.5814 60.5469 32.5814Z" fill="#222333"/>
<rect x="130.233" y="17.4419" width="24.4186" height="32.5581" rx="12.2093" fill="#222333"/>
<rect x="141.86" y="26.7442" width="3.48837" height="4.65116" rx="1.74419" transform="rotate(180 141.86 26.7442)" fill="#FFFFF2"/>
<rect x="146.512" y="26.7442" width="3.48837" height="4.65116" rx="1.74419" transform="rotate(180 146.512 26.7442)" fill="#FFFFF2"/>
<path d="M142.308 29.2931L137.437 39.0343H145.209L145.264 39.4728C145.479 41.1931 144.683 43.6473 143.16 45.6515C141.624 47.6731 139.271 49.3369 136.279 49.3371V48.3371C138.869 48.3369 140.955 46.9002 142.364 45.0461C143.644 43.3618 144.302 41.4133 144.296 40.0343H135.82L136.181 39.3107L141.413 28.8459L142.308 29.2931Z" fill="#FFFFF2"/>
</svg>
